<?xml version="1.0" encoding="UTF-8"?>
<svg id="Layer_2" data-name="Layer 2" xmlns="http://www.w3.org/2000/svg" xmlns:xlink="http://www.w3.org/1999/xlink" viewBox="0 0 240.76 193.33">
  <defs>
    <style>
      .cls-1 {
        stroke: #00a900;
      }

      .cls-1, .cls-2, .cls-3, .cls-4, .cls-5, .cls-6, .cls-7, .cls-8, .cls-9, .cls-10, .cls-11, .cls-12, .cls-13 {
        fill: none;
      }

      .cls-1, .cls-2, .cls-3, .cls-4, .cls-6, .cls-7, .cls-8, .cls-9, .cls-10, .cls-11, .cls-12, .cls-13 {
        stroke-miterlimit: 10;
      }

      .cls-1, .cls-2, .cls-4, .cls-7, .cls-10, .cls-11, .cls-12, .cls-13 {
        stroke-width: 4px;
      }

      .cls-2 {
        stroke: #d00000;
      }

      .cls-3 {
        stroke: #5fffff;
      }

      .cls-3, .cls-6, .cls-8, .cls-9 {
        fill-rule: evenodd;
        stroke-width: 22px;
      }

      .cls-4 {
        stroke: #e6a34c;
      }

      .cls-6 {
        stroke: #05ff74;
      }

      .cls-7 {
        stroke: #57bb7c;
      }

      .cls-8 {
        stroke: #ffea00;
      }

      .cls-9 {
        stroke: red;
      }

      .cls-10 {
        stroke: #c82451;
      }

      .cls-11 {
        stroke: #ff5600;
      }

      .cls-12 {
        stroke: #0093ed;
      }

      .cls-13 {
        stroke: #75b8dd;
      }

      .cls-14 {
        clip-path: url(#clippath);
      }
    </style>
    <clipPath id="clippath">
      <rect id="Mask" class="cls-5" width="240.76" height="193.33"/>
    </clipPath>
  </defs>
  <g id="Art">
    <g class="cls-14">
      <g id="_3Lineline" data-name="3Lineline">
        <path class="cls-2" d="M1051.99,424.52h-486.37c-69.12,0-136.98-18.82-196.23-54.42-59.25-35.6-107.72-86.68-140.17-147.71L-189.53-565.17"/>
        <path class="cls-10" d="M-170.11-575.5L248.64,212.06c62.47,117.48,183.92,190.46,316.98,190.46h486.37"/>
        <path class="cls-11" d="M1055.49,564.52h-499.75c-54.61,0-108.22-14.87-155.03-42.99s-85.1-68.48-110.74-116.7L-160.7-442.78"/>
        <path class="cls-4" d="M-141.28-453.11L309.4,394.5c48.55,91.3,142.94,148.02,246.34,148.02h499.75"/>
        <path class="cls-1" d="M-505.01,982.52h210.47c182.09,0,346.8-93.19,440.58-249.27,93.79-156.08,98.74-345.26,13.25-506.04l-459.36-863.93"/>
        <path class="cls-7" d="M-280.64-647.05L178.72,216.88c23.14,43.52,40.21,89.38,50.73,136.3,10.1,45.06,14.23,91.29,12.25,137.4-3.81,88.89-30.37,176.72-76.8,254s-111.52,141.96-188.21,187.05c-39.78,23.39-82.53,41.45-127.07,53.69-46.38,12.74-94.88,19.2-144.17,19.2h-210.47"/>
        <path class="cls-13" d="M-538.17,700.52h137.29c44.23,0,87.75-5.8,129.37-17.23,39.97-10.98,78.33-27.19,114.03-48.18,68.83-40.47,127.23-98.51,168.9-167.86,41.67-69.35,65.5-148.16,68.92-227.93,1.77-41.38-1.93-82.86-11-123.3C59.89,73.9,44.57,32.75,23.81-6.3l-403.01-757.95"/>
        <path class="cls-12" d="M-398.62-753.92L4.39,4.03C80.73,147.6,76.3,316.54-7.45,455.92c-83.75,139.38-230.83,222.6-393.44,222.6h-137.29"/>
        <path id="Red" class="cls-9" d="M1051.99,413.52h-486.37c-136.81,0-262.46-75.5-326.69-196.3L-179.82-570.34"/>
        <path id="Yellow" class="cls-8" d="M1055.49,553.52h-499.75c-107.23,0-205.71-59.17-256.05-153.85L-150.99-447.95"/>
        <path id="Green" class="cls-6" d="M-290.35-641.88L169.01,222.04c185.93,349.68-67.51,771.47-463.55,771.47h-210.47"/>
        <path id="Blue" class="cls-3" d="M-388.91-759.09L14.1-1.13c166.45,313.05-60.43,690.65-414.99,690.65h-137.29"/>
      </g>
    </g>
  </g>
<script xmlns=""/></svg>