<?xml version="1.0" encoding="utf-8"?>
<!-- Generator: Adobe Illustrator 25.1.0, SVG Export Plug-In . SVG Version: 6.00 Build 0)  -->
<svg version="1.1" xmlns="http://www.w3.org/2000/svg" xmlns:xlink="http://www.w3.org/1999/xlink" x="0px" y="0px"
	 viewBox="0 0 400 400" style="enable-background:new 0 0 400 400;" xml:space="preserve">
<style type="text/css">
	.st0{fill:#FBF393;}
	.st1{fill:#FBF393;stroke:#000000;stroke-width:8;stroke-miterlimit:10;}
	.st2{fill:#FBF393;stroke:#000000;stroke-width:8;stroke-linecap:round;stroke-miterlimit:10;}
	.st3{fill:#231F20;}
</style>
<g id="Background">
	<circle class="st0" cx="200" cy="200" r="200"/>
</g>
<g id="craig">
	<path class="st1" d="M64.05,346.68c22.89-24.09,58.62-53.47,107.99-62.91c28.86-5.52,36.41,0.75,51.61-9.14
		c41.79-27.2,30.65-99.46,30.65-153.23c0-4.65-0.72-29.41,3.76-38.17c6.54-12.79,31.37-18.61,45.7-9.68
		c11.72,7.3,6.89,17.03,20.43,26.88c11.83,8.6,23.08,2.71,30.65,19.35c8.06,17.74-8.6,16.13-18.28,24.19
		c-20.07,16.72-55.25,56.05-55.78,239.02"/>
	<path class="st1" d="M298.92,131.09"/>
	<path class="st2" d="M325.58,127.52c24.64,0,16.11-0.68,31.39-2.8"/>
	<circle class="st3" cx="298.92" cy="91.52" r="5.54"/>
</g>
</svg>
